<svg width="32" height="32" viewBox="0 0 32 32" fill="none" xmlns="http://www.w3.org/2000/svg">
  <circle cx="16" cy="16" r="16" fill="#325080" />
  <path d="M11.5 22V10H17.5C18.5 10 19.25 10.25 19.75 10.75C20.25 11.25 20.5 11.92 20.5 12.75C20.5 13.25 20.4 13.67 20.2 14C20 14.33 19.73 14.58 19.4 14.75C19.07 14.92 18.71 15 18.3 15C18.77 15 19.19 15.1 19.55 15.3C19.92 15.5 20.21 15.77 20.4 16.1C20.6 16.43 20.7 16.8 20.7 17.2C20.7 17.73 20.57 18.19 20.3 18.57C20.03 18.94 19.65 19.23 19.15 19.43C18.65 19.63 18.07 19.73 17.4 19.73H14.5V22H11.5ZM14.5 13V14.5H16.5C16.87 14.5 17.15 14.42 17.35 14.25C17.55 14.08 17.65 13.87 17.65 13.6C17.65 13.33 17.55 13.13 17.35 13C17.15 12.87 16.87 12.8 16.5 12.8H14.5V13ZM14.5 16.5V17.5H16.8C17.17 17.5 17.45 17.42 17.65 17.25C17.85 17.08 17.95 16.87 17.95 16.6C17.95 16.33 17.85 16.12 17.65 15.95C17.45 15.78 17.17 15.7 16.8 15.7H14.5V16.5Z" fill="white"/>
</svg>
